# xmcd
#
# Track frame offsets: 
#        150
#        17850
#        39612
#        58033
#        78628
#        92974
#        109333
#        119451
#        149924
#        171417
#
# Disc length: 2446 seconds
#
# Revision: 0
# Processed by: cddbd v1.5.2PL0 Copyright (c) Steve Scherf et al.
# Submitted via: ExactAudioCopy v1.0b4
#
DISCID=99098c0a
DTITLE=Ronnie Earl - I Like It When It Rains (LP)
DYEAR=1987
DGENRE=Blues
TTITLE0=Ridin With Ronnie
TTITLE1=Linda
TTITLE2=Midnite Clothes
TTITLE3=Mutcika
TTITLE4=I Like It When It Rains
TTITLE5=Walkin And Cryin
TTITLE6=Down On Guadaloupe
TTITLE7=Anna Lee
TTITLE8=Sittin On Top Of The World
TTITLE9=Blues For Jimmy And Jesse
EXTD=
EXTT0=
EXTT1=
EXTT2=
EXTT3=
EXTT4=
EXTT5=
EXTT6=
EXTT7=
EXTT8=
EXTT9=
PLAYORDER=
